# xmcd
#
# Track frame offsets:
#	150
#	15995
#	34347
#	49074
#	64880
#	79800
#	90131
#	105546
#	121856
#	141452
#	154653
#	172688
#	189825
#	206620
#	225411
#	238342
#	254929
#	275075
#	289474
#	302738
#
# Disc length: 4244 seconds
#
# Revision: 1
# Processed by: cddbd v1.5.2PL0 Copyright (c) Steve Scherf et al.
# Submitted via: audiograbber 1.80
#
DISCID=16109214
DTITLE=Colection - Tango Desnudo
DYEAR=1900
DGENRE=
TTITLE0=Taquito militar-Nicolas Ledesma
TTITLE1=Paris otonal-Sexteto Mayor
TTITLE2=A Orlando Goni-El Desquite
TTITLE3=Gallo ciego-Vale Tango
TTITLE4=Versero-Lina Avellaneda
TTITLE5=El choclo-Osvaldo Requena
TTITLE6=Milongueta para taranta-Orquestra el Arranque
TTITLE7=Canaro en Paris-Fabian Bertero y Los musicos de Buenos Aires
TTITLE8=Al amigo Rablo Rago-Ramiro Gallo Quinteto
TTITLE9=La yuma-Orquestra Escuela de tango
TTITLE10=Renacere-Julia Zenko
TTITLE11=Fuegos Artificiales-Erica Di Salvo Oceto
TTITLE12=Triunfal-Suarez Paz Quiteto
TTITLE13=El Andariego-Julio Pane trio
TTITLE14=Ventaron-Quinteto Ventaron
TTITLE15=Zona roja-Quinteto La Camora
TTITLE16=Tema otonal-Orquestra el Arranque
TTITLE17=El entrerriano-Quinteto Argentino de Cuerdas
TTITLE18=Quejas de bandoneon-Florindo sassone
TTITLE19=Milonga para Miles-PAblo Mianetti Quinteto
EXTD=
EXTT0=
EXTT1=
EXTT2=
EXTT3=
EXTT4=
EXTT5=
EXTT6=
EXTT7=
EXTT8=
EXTT9=
EXTT10=
EXTT11=
EXTT12=
EXTT13=
EXTT14=
EXTT15=
EXTT16=
EXTT17=
EXTT18=
EXTT19=
PLAYORDER=
